Normalized EMG Linear Envelopes
nRows=259
nColumns=4

endheader
time	 med_gas_r	  soleus_r	 tib_ant_r	
3.16028	  0.001555	  0.002745	  0.001239	
3.19355	  0.001614	  0.002691	  0.001244	
3.22681	  0.001669	  0.002644	  0.001238	
3.26008	  0.001717	  0.002609	  0.001215	
3.29335	  0.001753	  0.002586	  0.001176	
3.32661	  0.001772	  0.002570	  0.001123	
3.35988	  0.001769	  0.002557	  0.001062	
3.39315	  0.001746	  0.002543	  0.001000	
3.42641	  0.001706	  0.002529	  0.000947	
3.45968	  0.001660	  0.002515	  0.000911	
3.49294	  0.001613	  0.002502	  0.000895	
3.52621	  0.001571	  0.002492	  0.000902	
3.55948	  0.001538	  0.002488	  0.000930	
3.59274	  0.001517	  0.002492	  0.000973	
3.62601	  0.001508	  0.002504	  0.001024	
3.65927	  0.001508	  0.002520	  0.001074	
3.69254	  0.001513	  0.002532	  0.001115	
3.72581	  0.001518	  0.002538	  0.001147	
3.75907	  0.001524	  0.002539	  0.001169	
3.79234	  0.001532	  0.002538	  0.001183	
3.8256	  0.001549	  0.002534	  0.001182	
3.85887	  0.001583	  0.002525	  0.001155	
3.89214	  0.001636	  0.002513	  0.001092	
3.9254	  0.001702	  0.002497	  0.000981	
3.95867	  0.001769	  0.002481	  0.000815	
3.99194	  0.001820	  0.002465	  0.000585	
4.0252	  0.001842	  0.002447	  0.000297	
4.05847	  0.001834	  0.002427	 -0.000025	
4.09173	  0.001806	  0.002409	 -0.000326	
4.125	  0.001771	  0.002402	 -0.000525	
4.15827	  0.001745	  0.002422	 -0.000512	
4.19153	  0.001739	  0.002492	 -0.000123	
4.2248	  0.001764	  0.002650	  0.000878	
4.25806	  0.001826	  0.002947	  0.002781	
4.29133	  0.001930	  0.003432	  0.005831	
4.3246	  0.002073	  0.004116	  0.010121	
4.35786	  0.002249	  0.004965	  0.015616	
4.39113	  0.002453	  0.005931	  0.022327	
4.4244	  0.002694	  0.007022	  0.030483	
4.45766	  0.002990	  0.008345	  0.040447	
4.49093	  0.003363	  0.010062	  0.052374	
4.52419	  0.003824	  0.012304	  0.065916	
4.55746	  0.004365	  0.015101	  0.080339	
4.59073	  0.004968	  0.018391	  0.094980	
4.62399	  0.005618	  0.022095	  0.109639	
4.65726	  0.006314	  0.026170	  0.124515	
4.69052	  0.007073	  0.030624	  0.139749	
4.72379	  0.007924	  0.035465	  0.154988	
4.75706	  0.008883	  0.040632	  0.169284	
4.79032	  0.009931	  0.045941	  0.181410	
4.82359	  0.011013	  0.051125	  0.190357	
4.85685	  0.012057	  0.055937	  0.195786	
4.89012	  0.013017	  0.060249	  0.198274	
4.92339	  0.013891	  0.064055	  0.199295	
4.95665	  0.014712	  0.067394	  0.200958	
4.98992	  0.015517	  0.070329	  0.205530	
5.02319	  0.016335	  0.073031	  0.214860	
5.05645	  0.017197	  0.075873	  0.229873	
5.08972	  0.018143	  0.079348	  0.250314	
5.12298	  0.019198	  0.083771	  0.274817	
5.15625	  0.020331	  0.088988	  0.301224	
5.18952	  0.021445	  0.094386	  0.327075	
5.22278	  0.022409	  0.099252	  0.350206	
5.25605	  0.023130	  0.103209	  0.369276	
5.28931	  0.023598	  0.106344	  0.383997	
5.32258	  0.023863	  0.108939	  0.394938	
5.35585	  0.023982	  0.111108	  0.403102	
5.38911	  0.023987	  0.112703	  0.409631	
5.42238	  0.023898	  0.113543	  0.415796	
5.45565	  0.023763	  0.113681	  0.423005	
5.48891	  0.023668	  0.113427	  0.432545	
5.52218	  0.023690	  0.113106	  0.445023	
5.55544	  0.023848	  0.112843	  0.459942	
5.58871	  0.024090	  0.112576	  0.475865	
5.62198	  0.024359	  0.112303	  0.491225	
5.65524	  0.024666	  0.112332	  0.505247	
5.68851	  0.025126	  0.113352	  0.518246	
5.72177	  0.025916	  0.116208	  0.531070	
5.75504	  0.027172	  0.121509	  0.544178	
5.78831	  0.028901	  0.129278	  0.557042	
5.82157	  0.030959	  0.138918	  0.568193	
5.85484	  0.033111	  0.149490	  0.575807	
5.8881	  0.035117	  0.160074	  0.578519	
5.92137	  0.036801	  0.169939	  0.576139	
5.95464	  0.038079	  0.178515	  0.569878	
5.9879	  0.038943	  0.185302	  0.561903	
6.02117	  0.039400	  0.189811	  0.554426	
6.05444	  0.039416	  0.191561	  0.548796	
6.0877	  0.038909	  0.190145	  0.544962	
6.12097	  0.037820	  0.185428	  0.541430	
6.15423	  0.036213	  0.177792	  0.535885	
6.1875	  0.034297	  0.168232	  0.526489	
6.22077	  0.032358	  0.158144	  0.513307	
6.25403	  0.030654	  0.148953	  0.498824	
6.2873	  0.029387	  0.141815	  0.487110	
6.32056	  0.028727	  0.137502	  0.482257	
6.35383	  0.028842	  0.136408	  0.487122	
6.3871	  0.029839	  0.138512	  0.502692	
6.42036	  0.031665	  0.143296	  0.527819	
6.45363	  0.034048	  0.149733	  0.559311	
6.4869	  0.036564	  0.156456	  0.592799	
6.52016	  0.038791	  0.162102	  0.624209	
6.55343	  0.040446	  0.165670	  0.650824	
6.58669	  0.041432	  0.166738	  0.671148	
6.61996	  0.041813	  0.165528	  0.684126	
6.65323	  0.041770	  0.162822	  0.689031	
6.68649	  0.041546	  0.159739	  0.686338	
6.71976	  0.041360	  0.157329	  0.678422	
6.75302	  0.041287	  0.156061	  0.668909	
6.78629	  0.041213	  0.155502	  0.660933	
6.81956	  0.040915	  0.154518	  0.655698	
6.85282	  0.040253	  0.152032	  0.652470	
6.88609	  0.039298	  0.147885	  0.649883	
6.91935	  0.038317	  0.143157	  0.647445	
6.95262	  0.037621	  0.139648	  0.646005	
6.98589	  0.037396	  0.138889	  0.646768	
7.01915	  0.037636	  0.141390	  0.649621	
7.05242	  0.038163	  0.146526	  0.652301	
7.08569	  0.038710	  0.152938	  0.651386	
7.11895	  0.038995	  0.159010	  0.644560	
7.15222	  0.038799	  0.163238	  0.632359	
7.18548	  0.038046	  0.164566	  0.617929	
7.21875	  0.036841	  0.162735	  0.605051	
7.25202	  0.035452	  0.158448	  0.596046	
7.28528	  0.034193	  0.153075	  0.591094	
7.31855	  0.033287	  0.148026	  0.589105	
7.35181	  0.032798	  0.144175	  0.589115	
7.38508	  0.032672	  0.141667	  0.591110	
7.41835	  0.032830	  0.140107	  0.595902	
7.45161	  0.033220	  0.138903	  0.604359	
7.48488	  0.033811	  0.137594	  0.616573	
7.51815	  0.034561	  0.136062	  0.631528	
7.55141	  0.035395	  0.134545	  0.647363	
7.58468	  0.036207	  0.133375	  0.661862	
7.61794	  0.036848	  0.132592	  0.672758	
7.65121	  0.037141	  0.131801	  0.677941	
7.68448	  0.036952	  0.130524	  0.676007	
7.71774	  0.036311	  0.128806	  0.667142	
7.75101	  0.035473	  0.127532	  0.653617	
7.78427	  0.034838	  0.128092	  0.639097	
7.81754	  0.034755	  0.131595	  0.626896	
7.85081	  0.035343	  0.138159	  0.618331	
7.88407	  0.036424	  0.146714	  0.612518	
7.91734	  0.037618	  0.155409	  0.607789	
7.9506	  0.038530	  0.162417	  0.603435	
7.98387	  0.038927	  0.166754	  0.600133	
8.01714	  0.038806	  0.168627	  0.598530	
8.0504	  0.038331	  0.169135	  0.597372	
8.08367	  0.037728	  0.169563	  0.593320	
8.11694	  0.037210	  0.170805	  0.583274	
8.1502	  0.036944	  0.173127	  0.567474	
8.18347	  0.037022	  0.176132	  0.550402	
8.21673	  0.037396	  0.178770	  0.538240	
8.25	  0.037865	  0.179562	  0.534797	
8.28327	  0.038170	  0.177272	  0.539254	
8.31653	  0.038152	  0.171735	  0.547314	
8.3498	  0.037869	  0.164222	  0.554408	
8.38306	  0.037579	  0.156987	  0.558297	
8.41633	  0.037602	  0.152284	  0.559459	
8.4496	  0.038138	  0.151459	  0.559665	
8.48286	  0.039153	  0.154500	  0.560233	
8.51613	  0.040369	  0.160133	  0.561246	
8.5494	  0.041385	  0.166364	  0.562043	
8.58266	  0.041873	  0.171339	  0.562250	
8.61593	  0.041741	  0.174153	  0.562165	
8.64919	  0.041149	  0.175162	  0.561912	
8.68246	  0.040384	  0.175542	  0.560192	
8.71573	  0.039675	  0.176330	  0.554199	
8.74899	  0.039098	  0.177684	  0.541322	
8.78226	  0.038635	  0.178915	  0.521455	
8.81552	  0.038296	  0.179221	  0.497974	
8.84879	  0.038176	  0.178397	  0.476482	
8.88206	  0.038374	  0.176815	  0.462118	
8.91532	  0.038844	  0.174802	  0.457186	
8.94859	  0.039363	  0.172230	  0.460502	
8.98185	  0.039685	  0.168898	  0.468664	
9.01512	  0.039755	  0.165317	  0.478245	
9.04839	  0.039771	  0.162862	  0.487464	
9.08165	  0.040003	  0.162902	  0.496477	
9.11492	  0.040524	  0.165628	  0.506535	
9.14819	  0.041115	  0.169746	  0.518840	
9.18145	  0.041410	  0.173320	  0.533786	
9.21472	  0.041150	  0.174962	  0.550777	
9.24798	  0.040299	  0.174308	  0.568341	
9.28125	  0.038996	  0.171586	  0.584087	
9.31452	  0.037438	  0.166985	  0.594314	
9.34778	  0.035829	  0.160524	  0.593830	
9.38105	  0.034391	  0.152362	  0.576944	
9.41431	  0.033381	  0.143014	  0.539720	
9.44758	  0.033106	  0.133225	  0.482143	
9.48085	  0.033953	  0.123757	  0.408653	
9.51411	  0.036390	  0.115380	  0.326803	
9.54738	  0.040783	  0.108912	  0.245062	
9.58065	  0.047020	  0.104995	  0.170862	
9.61391	  0.054211	  0.103730	  0.109317	
9.64718	  0.060884	  0.104657	  0.062687	
9.68044	  0.065701	  0.107238	  0.030600	
9.71371	  0.068175	  0.111230	  0.010896	
9.74698	  0.068716	  0.116358	  0.000654	
9.78024	  0.067918	  0.121581	 -0.003007	
9.81351	  0.065780	  0.124982	 -0.002535	
9.84677	  0.061639	  0.124691	  0.000156	
9.88004	  0.054892	  0.120061	  0.003670	
9.91331	  0.045783	  0.111980	  0.007068	
9.94657	  0.035510	  0.102106	  0.009787	
9.97984	  0.025614	  0.091834	  0.011547	
10.0131	  0.017238	  0.081769	  0.012278	
10.0464	  0.010822	  0.071868	  0.012078	
10.0796	  0.006263	  0.061887	  0.011180	
10.1129	  0.003243	  0.051771	  0.009906	
10.1462	  0.001429	  0.041814	  0.008586	
10.1794	  0.000518	  0.032566	  0.007479	
10.2127	  0.000226	  0.024591	  0.006724	
10.246	  0.000297	  0.018202	  0.006355	
10.2792	  0.000539	  0.013364	  0.006328	
10.3125	  0.000830	  0.009791	  0.006546	
10.3458	  0.001107	  0.007150	  0.006851	
10.379	  0.001340	  0.005205	  0.007042	
10.4123	  0.001521	  0.003822	  0.006939	
10.4456	  0.001652	  0.002912	  0.006480	
10.4788	  0.001745	  0.002379	  0.005762	
10.5121	  0.001816	  0.002123	  0.004977	
10.5454	  0.001875	  0.002059	  0.004295	
10.5786	  0.001927	  0.002118	  0.003787	
10.6119	  0.001967	  0.002249	  0.003427	
10.6452	  0.001991	  0.002409	  0.003167	
10.6784	  0.002003	  0.002568	  0.002984	
10.7117	  0.002005	  0.002706	  0.002888	
10.745	  0.002004	  0.002815	  0.002884	
10.7782	  0.001999	  0.002894	  0.002948	
10.8115	  0.001990	  0.002940	  0.003039	
10.8448	  0.001978	  0.002958	  0.003118	
10.878	  0.001970	  0.002949	  0.003173	
10.9113	  0.001974	  0.002922	  0.003196	
10.9446	  0.001990	  0.002881	  0.003170	
10.9778	  0.002014	  0.002828	  0.003064	
11.0111	  0.002035	  0.002762	  0.002861	
11.0444	  0.002044	  0.002676	  0.002574	
11.0776	  0.002037	  0.002565	  0.002251	
11.1109	  0.002017	  0.002430	  0.001941	
11.1442	  0.001992	  0.002279	  0.001682	
11.1774	  0.001973	  0.002128	  0.001484	
11.2107	  0.001969	  0.001996	  0.001343	
11.244	  0.001982	  0.001906	  0.001246	
11.2772	  0.002009	  0.001894	  0.001184	
11.3105	  0.002042	  0.002018	  0.001148	
11.3437	  0.002074	  0.002355	  0.001132	
11.377	  0.002103	  0.002990	  0.001134	
11.4103	  0.002126	  0.003996	  0.001149	
11.4435	  0.002146	  0.005434	  0.001170	
11.4768	  0.002164	  0.007341	  0.001189	
11.5101	  0.002178	  0.009663	  0.001199	
11.5433	  0.002183	  0.012137	  0.001196	
11.5766	  0.002173	  0.014186	  0.001182	
11.6099	  0.002140	  0.015010	  0.001162	
11.6431	  0.002086	  0.013882	  0.001143	
11.6764	  0.002017	  0.010510	  0.001131	
11.7097	  0.001941	  0.005198	  0.001129	
11.7429	  0.001865	 -0.001275	  0.001134	
